<svg width="258" height="81" viewBox="0 0 258 81" fill="none" xmlns="http://www.w3.org/2000/svg">
<path d="M3.31 75.54C2.94 75.31 2.87 74.8 3.17 74.29C3.49 73.76 3.96 73.59 4.33 73.82C4.68 74.03 4.76 74.54 4.44 75.07C4.14 75.56 3.64 75.74 3.3 75.53L3.31 75.54ZM7.42 77.97C7.05 77.74 6.97 77.24 7.27 76.75C7.57 76.24 8.03 76.07 8.42 76.31C8.78 76.53 8.86 77.02 8.55 77.53C8.26 78.01 7.78 78.18 7.43 77.96L7.42 77.97Z" fill="#E8A15B"/>
<path d="M4.81 69.07C5.04 69.22 5.04 69.56 4.84 69.86C4.64 70.16 4.34 70.31 4.11 70.16C3.89 70.02 3.87 69.66 4.07 69.36C4.26 69.06 4.59 68.93 4.81 69.07Z" fill="#E8A15B"/>
<path d="M7.92 71.2C7.06 70.64 6.65 70.57 5.76 71.56C5.35 72 5.14 72.25 4.96 72.41C4.66 72.09 4.51 71.93 4.22 71.61C4.39 71.45 4.62 71.2 5.01 70.72C6.27 69.28 6.98 69.03 8.5 70.03C9.81 70.9 10.46 71.33 11.77 72.2C11.49 72.62 11.36 72.83 11.08 73.25C9.82 72.43 9.19 72.02 7.93 71.2H7.92Z" fill="#E8A15B"/>
<path d="M15.32 68.86C16.02 69.36 16.36 69.6 17.06 70.1C16.94 70.27 16.88 70.36 16.75 70.53C16.05 70.04 15.7 69.79 15.01 69.3C15.13 69.12 15.2 69.04 15.32 68.86Z" fill="#E8A15B"/>
<path d="M11.81 66.24C12.03 66.4 12.02 66.73 11.82 67.01C11.62 67.29 11.32 67.41 11.09 67.26C10.86 67.11 10.87 66.76 11.06 66.48C11.25 66.2 11.58 66.09 11.8 66.24H11.81Z" fill="#E8A15B"/>
<path d="M11.81 70.24C12.03 69.8 12.69 68.85 13.2 68.11C13.76 67.31 14.04 66.91 14.62 66.13C13.96 65.65 13.04 64.96 12.54 64.63C11.49 63.92 10.97 63.76 10.06 65.04C9.73 65.51 9.56 65.75 9.23 66.22C8.68 67.01 8.31 67.52 8.13 67.7C7.84 67.36 7.7 67.19 7.42 66.85C7.65 66.6 8.06 65.99 8.67 65.11C8.97 64.68 9.12 64.46 9.43 64.03C10.81 62.09 11.62 62.36 12.93 63.35C13.56 63.82 13.88 64.06 14.52 64.53C14.72 64.68 15.15 65.04 15.3 65.19C15.58 64.82 15.72 64.63 15.99 64.26C16.27 64.61 16.42 64.78 16.7 65.13C15.47 66.78 14.86 67.62 13.67 69.33C13.28 69.89 12.71 70.73 12.54 71.06C12.25 70.73 12.1 70.57 11.81 70.23V70.24Z" fill="#E8A15B"/>
<path d="M19.89 63.33C20.11 63.5 20.08 63.82 19.89 64.08C19.69 64.34 19.39 64.44 19.17 64.27C18.96 64.11 18.96 63.77 19.17 63.51C19.37 63.25 19.7 63.17 19.9 63.33H19.89Z" fill="#E8A15B"/>
<path d="M17.05 62.84C17.96 60.87 18.04 58.8 16.73 57.73C16.15 57.25 15.78 57.47 15.24 58.15C14.27 59.36 13.8 59.98 12.85 61.22C12.3 60.8 12.03 60.59 11.48 60.17C10.9 59.73 10.17 59.23 9.82 59.2C10.09 58.72 10.23 58.49 10.51 58.01C10.69 58.03 11.38 58.47 12.08 59.02C12.35 59.23 12.48 59.33 12.75 59.54C13.53 58.53 13.92 58.03 14.71 57.05C15.76 55.75 16.48 55.84 17.3 56.53C19.37 58.26 19.01 61.58 17.83 63.81C17.51 63.42 17.35 63.23 17.04 62.83L17.05 62.84Z" fill="#E8A15B"/>
<path d="M23.28 55.42C23.41 55.22 23.53 55.04 24.09 54.43C24.15 54.36 24.18 54.33 24.25 54.26C23.38 53.49 21.51 51.95 20.87 51.52C20.86 51.53 20.85 51.54 20.84 51.56C20.65 51.77 20.19 52.27 19.96 52.41C19.72 52.04 19.6 51.86 19.37 51.49C19.76 51.16 20.44 50.36 21.11 49.64C21.83 48.86 22.19 48.48 22.91 47.71C24.54 46 25.16 46 26.61 47.45C27.76 48.6 28.33 49.17 29.48 50.32C29.14 50.66 28.98 50.83 28.64 51.17C27.58 50.13 27.05 49.6 25.99 48.56C25.14 47.73 24.64 47.47 23.62 48.55C22.85 49.36 22.46 49.77 21.7 50.6C22.32 51.06 24.45 52.8 25.06 53.39C25.32 53.75 25.45 53.93 25.71 54.28C25.38 54.64 25.22 54.82 24.89 55.18C24.48 55.64 24.12 56.06 23.91 56.36C23.66 55.98 23.54 55.8 23.3 55.42H23.28Z" fill="#E8A15B"/>
<path d="M35.88 46.36C34.95 47.2 34.49 47.63 33.57 48.5C33.43 48.35 33.35 48.27 33.21 48.12C34.13 47.25 34.59 46.82 35.53 45.97C35.67 46.13 35.74 46.21 35.88 46.36Z" fill="#E8A15B"/>
<path d="M28.6 45.86C28.04 45.28 27.64 44.8 27.53 44.57C27.32 44.76 26.75 45.27 26.66 45.34C26.43 44.96 26.32 44.76 26.1 44.38C26.38 44.19 26.95 43.63 27.73 42.88C28.56 42.09 28.98 41.69 29.83 40.92C31.53 39.36 32.23 39.49 33.55 40.98C34.6 42.18 35.13 42.78 36.19 43.99C35.84 44.3 35.66 44.46 35.31 44.77C34.34 43.68 33.85 43.14 32.88 42.05C32 41.06 31.57 40.81 30.47 41.82C29.61 42.61 29.18 43.01 28.33 43.83C29.83 45.41 30.58 46.2 32.07 47.77C31.73 48.09 31.56 48.26 31.23 48.58C30.18 47.49 29.65 46.95 28.6 45.86Z" fill="#E8A15B"/>
<path d="M42.3 40.72C42.47 40.94 42.39 41.23 42.15 41.43C41.91 41.62 41.6 41.64 41.43 41.43C41.26 41.22 41.33 40.91 41.58 40.71C41.83 40.51 42.15 40.52 42.31 40.72H42.3ZM43.22 41.87C43.39 42.09 43.31 42.38 43.07 42.57C42.83 42.76 42.52 42.78 42.35 42.57C42.18 42.36 42.25 42.05 42.49 41.85C42.73 41.66 43.05 41.66 43.22 41.87Z" fill="#E8A15B"/>
<path d="M35.87 39.38C35.27 38.32 34.48 38.36 33.62 38.87C33.41 38.46 33.31 38.25 33.11 37.84C34.17 37.14 35.14 37.13 35.84 37.75C35.65 36.96 35.76 35.62 37.12 34.53C39.03 33 40.55 34.02 41.96 35.87C42.33 36.36 42.52 36.6 42.89 37.09C42.96 37.18 43.31 37.91 43.37 38.07C42.44 38.79 41.98 39.15 41.06 39.89C40.59 40.27 40 40.77 39.77 40.99C39.58 40.59 39.48 40.4 39.29 40C39.5 39.76 40.05 39.31 40.7 38.79C41.19 38.39 41.44 38.2 41.94 37.81C41.64 37.4 41.34 37.01 41.05 36.63C40.12 35.43 39.01 34.41 37.6 35.55C36.25 36.63 36.64 38.05 36.97 38.82C37.3 39.59 37.98 40.92 38.51 41.98C38.15 42.28 37.97 42.43 37.62 42.74C37.05 41.6 36.32 40.17 35.87 39.38Z" fill="#E8A15B"/>
<path d="M49.64 35.25C49.8 35.48 49.7 35.77 49.44 35.94C49.19 36.12 48.88 36.11 48.72 35.89C48.57 35.67 48.66 35.36 48.91 35.19C49.16 35.01 49.49 35.04 49.64 35.26V35.25Z" fill="#E8A15B"/>
<path d="M40.89 30.5C41.05 30.72 40.95 31.03 40.68 31.22C40.42 31.42 40.1 31.43 39.93 31.22C39.77 31.01 39.86 30.68 40.13 30.49C40.39 30.29 40.73 30.3 40.89 30.51V30.5Z" fill="#E8A15B"/>
<path d="M40.65 31.99C41.1 31.6 41.32 31.41 41.77 31.02C42.03 31.19 42.73 31.79 44.42 33.32C45.49 32.2 45.43 31.67 44.93 30.96C44.65 30.57 44.11 30.11 43.61 29.82C44.06 29.45 44.29 29.26 44.74 28.89C45.09 29.13 45.61 29.58 45.94 30.06C46.59 30.97 46.81 32.06 44.97 33.87C45.06 33.95 45.7 34.54 46 34.81C46.25 34.6 46.69 34.24 47.22 33.71C48.55 32.38 49.13 31.23 47.99 29.53C47.55 28.87 46.85 28.27 46.29 27.95C46.76 27.58 47 27.4 47.47 27.04C47.85 27.31 48.45 27.86 48.94 28.6C50.56 31.05 49.33 33.06 47.64 34.68C46.95 35.33 46.26 35.95 45.88 36.28C44.69 35.19 41.59 32.51 40.64 31.99H40.65Z" fill="#E8A15B"/>
<path d="M59.91 22.61C60.46 23.63 60.74 24.14 61.29 25.15C61.32 25.21 61.5 25.88 61.59 26.22C59.28 27.48 58.13 28.13 55.87 29.51C54.98 28.04 54.53 27.31 53.64 25.84C53.35 25.37 53.2 25.03 53.13 24.8C52.78 25.01 52.32 25.26 52.15 25.31C52.01 24.89 51.95 24.68 51.81 24.26C52.18 24.1 52.93 23.65 53.66 23.21C54.73 22.58 55.27 22.27 56.34 21.66C58.3 20.55 58.93 20.81 59.91 22.61ZM56.83 22.64C55.7 23.28 55.14 23.6 54.02 24.27C54.91 25.76 55.36 26.51 56.25 28C57.86 27.04 58.67 26.58 60.3 25.68C59.8 24.77 59.55 24.32 59.04 23.41C58.46 22.37 58.04 21.95 56.82 22.64H56.83Z" fill="#E8A15B"/>
<path d="M61.42 17.81C61.55 18.06 61.4 18.33 61.11 18.48C60.82 18.63 60.51 18.59 60.38 18.34C60.26 18.11 60.4 17.8 60.68 17.66C60.97 17.51 61.3 17.57 61.42 17.81Z" fill="#E8A15B"/>
<path d="M63.07 21.2C62.6 20.28 62.29 20.01 61.14 20.36C60.62 20.51 60.34 20.6 60.12 20.64C60.01 20.22 59.96 20.01 59.85 19.59C60.05 19.55 60.35 19.46 60.87 19.27C62.52 18.74 63.21 18.9 64.03 20.53C64.73 21.93 65.09 22.64 65.79 24.04C65.38 24.24 65.18 24.35 64.77 24.55C64.08 23.21 63.74 22.54 63.06 21.2H63.07Z" fill="#E8A15B"/>
<path d="M66.12 20.69C66.33 19.73 66.38 19.06 66.17 18.63C66 18.27 65.68 18.28 64.99 18.44C64.63 18.52 64.32 18.59 64.05 18.63C63.96 18.21 63.91 17.99 63.81 17.57C64.03 17.53 64.33 17.46 64.71 17.36C66.12 16.96 66.73 17.08 67.11 17.88C67.43 18.57 67.38 19.52 67.11 20.62C66.72 20.65 66.52 20.66 66.12 20.69Z" fill="#E8A15B"/>
<path d="M73.69 21.95C73.8 22.2 73.65 22.46 73.37 22.58C73.09 22.7 72.8 22.63 72.69 22.38C72.58 22.14 72.73 21.85 73 21.73C73.28 21.61 73.58 21.7 73.69 21.94V21.95ZM74.28 23.31C74.39 23.56 74.24 23.82 73.97 23.94C73.7 24.06 73.4 23.99 73.29 23.74C73.18 23.49 73.32 23.21 73.6 23.09C73.88 22.97 74.18 23.06 74.28 23.31Z" fill="#E8A15B"/>
<path d="M69.81 20.98C70.19 20.74 71.15 20.31 71.9 19.98C72.72 19.62 73.13 19.45 73.95 19.11C73.63 18.36 73.19 17.3 72.94 16.75C72.41 15.6 72.05 15.19 70.74 15.75C70.26 15.96 70.02 16.06 69.54 16.27C68.74 16.62 68.21 16.84 67.98 16.89C67.9 16.46 67.86 16.24 67.78 15.81C68.08 15.73 68.69 15.45 69.58 15.06C70.02 14.87 70.24 14.77 70.68 14.58C72.68 13.73 73.21 14.38 73.84 15.9C74.14 16.63 74.29 17 74.59 17.73C74.69 17.96 74.87 18.5 74.92 18.7C75.31 18.54 75.51 18.46 75.91 18.3C75.98 18.74 76.02 18.96 76.09 19.4C74.34 20.1 73.46 20.47 71.73 21.24C71.16 21.49 70.32 21.87 70.03 22.04C69.94 21.61 69.9 21.4 69.81 20.97V20.98Z" fill="#E8A15B"/>
<path d="M76.7 16.16C76.8 16.42 76.63 16.68 76.34 16.79C76.05 16.9 75.75 16.83 75.65 16.57C75.55 16.31 75.71 16.04 76 15.93C76.29 15.82 76.6 15.92 76.7 16.16Z" fill="#E8A15B"/>
<path d="M77.15 14.96C76.78 14 76.51 13.7 75.33 13.91C74.8 14 74.52 14.06 74.29 14.07C74.23 13.64 74.2 13.42 74.14 12.99C74.35 12.97 74.65 12.92 75.18 12.79C76.87 12.44 77.53 12.68 78.17 14.39C78.72 15.86 79 16.6 79.55 18.07C79.13 18.23 78.92 18.31 78.49 18.47C77.95 17.07 77.68 16.37 77.14 14.96H77.15Z" fill="#E8A15B"/>
<path d="M83.4 8.78998C83.48 9.04998 83.29 9.29998 82.99 9.39998C82.69 9.49998 82.38 9.39998 82.3 9.14998C82.22 8.89998 82.4 8.61998 82.7 8.52998C83.01 8.42998 83.32 8.54998 83.4 8.79998V8.78998Z" fill="#E8A15B"/>
<path d="M84.49 12.4C84.17 11.42 83.92 11.1 82.73 11.25C82.2 11.31 81.91 11.36 81.69 11.36C81.65 10.93 81.63 10.71 81.59 10.28C81.8 10.28 82.1 10.24 82.64 10.13C84.34 9.88 84.99 10.15 85.54 11.89C86.01 13.39 86.25 14.14 86.72 15.63C86.29 15.76 86.08 15.83 85.65 15.97C85.19 14.54 84.96 13.83 84.49 12.4Z" fill="#E8A15B"/>
<path d="M87.86 14.21C88.06 14.11 88.25 14.03 88.99 13.82C89.07 13.8 89.12 13.78 89.2 13.76C88.86 12.65 88.07 10.36 87.75 9.66002C87.73 9.66002 87.72 9.66002 87.71 9.67002C87.45 9.75002 86.84 9.91002 86.59 9.91002C86.57 9.47002 86.56 9.26002 86.54 8.82002C87.01 8.76002 87.94 8.46002 88.83 8.21002C89.78 7.94002 90.26 7.81002 91.22 7.56002C93.36 7.00002 93.88 7.32002 94.37 9.32002C94.76 10.9 94.95 11.68 95.34 13.26C94.9 13.37 94.69 13.42 94.25 13.53C93.88 12.09 93.7 11.37 93.33 9.93002C93.04 8.78002 92.75 8.30002 91.4 8.65002C90.38 8.92002 89.87 9.06002 88.86 9.34002C89.14 10.06 90.05 12.66 90.27 13.47C90.31 13.91 90.33 14.13 90.37 14.56C89.93 14.68 89.71 14.75 89.27 14.87C88.72 15.03 88.22 15.19 87.91 15.32C87.89 14.88 87.88 14.65 87.86 14.21Z" fill="#E8A15B"/>
<path d="M100.53 13.69C100.07 13.79 99.84 13.83 99.37 13.93C99.51 14.35 99.59 14.56 99.73 14.98C99.43 15.04 99.28 15.08 98.98 15.14C98.93 14.7 98.91 14.48 98.87 14.03C98.4 14.13 98.16 14.19 97.69 14.29C97.64 14.08 97.62 13.98 97.57 13.78C98.71 13.52 99.28 13.4 100.42 13.16C100.46 13.37 100.48 13.47 100.53 13.68V13.69Z" fill="#E8A15B"/>
<path d="M97.98 9.26001C98.04 9.53001 97.83 9.76001 97.53 9.82001C97.23 9.89001 96.95 9.77001 96.88 9.50001C96.82 9.23001 97.02 8.99001 97.32 8.92001C97.62 8.85001 97.91 9.00001 97.97 9.26001H97.98Z" fill="#E8A15B"/>
<path d="M96.64 11.87C96.98 11.75 97.43 11.64 98.37 11.43C98.77 11.34 98.97 11.3 99.36 11.22C99.14 10.17 99.02 9.64998 98.8 8.59998C98.58 7.57998 98.38 7.31998 97.02 7.35998C96.47 7.37998 95.94 7.40998 95.69 7.38998C95.69 6.95998 95.69 6.73998 95.69 6.29998C95.9 6.30998 96.35 6.29998 97.01 6.24998C98.78 6.15998 99.52 6.42998 99.88 8.15998C100.11 9.29998 100.23 9.86998 100.47 11.02C100.46 11.45 100.45 11.67 100.44 12.1C99.66 12.26 99.27 12.34 98.48 12.51C97.88 12.64 96.91 12.87 96.64 12.96C96.64 12.52 96.64 12.3 96.64 11.85V11.87Z" fill="#E8A15B"/>
<path d="M105.98 12.46C106.02 12.72 105.83 12.92 105.53 12.97C105.22 13.02 105 12.89 104.95 12.63C104.91 12.38 105.07 12.16 105.38 12.11C105.68 12.06 105.93 12.21 105.97 12.46H105.98ZM107.21 13.32C107.25 13.56 107.06 13.79 106.77 13.84C106.48 13.89 106.22 13.72 106.18 13.49C106.14 13.23 106.33 13.02 106.62 12.97C106.91 12.92 107.17 13.07 107.21 13.33V13.32ZM108.4 14.21C108.44 14.47 108.23 14.68 107.98 14.72C107.68 14.77 107.44 14.62 107.4 14.36C107.36 14.12 107.54 13.9 107.85 13.85C108.1 13.81 108.37 13.97 108.4 14.2V14.21Z" fill="#E8A15B"/>
<path d="M101.98 10.76C102.19 10.68 102.38 10.62 103.14 10.48C103.23 10.46 103.27 10.46 103.35 10.44C103.13 9.30003 102.57 6.95003 102.33 6.21003C102.31 6.21003 102.3 6.21003 102.29 6.21003C102.03 6.26003 101.41 6.36003 101.16 6.34003C101.19 5.91003 101.2 5.69003 101.22 5.25003C101.69 5.23003 102.65 5.03003 103.55 4.88003C104.52 4.71003 105.01 4.63003 105.98 4.48003C108.16 4.14003 108.64 4.51003 108.92 6.55003C109.15 8.16003 109.26 8.96003 109.48 10.57C109.04 10.63 108.81 10.66 108.37 10.73C108.15 9.26003 108.04 8.52003 107.82 7.05003C107.65 5.88003 107.41 5.37003 106.03 5.58003C104.99 5.74003 104.47 5.83003 103.44 6.01003C103.65 6.75003 104.28 9.43003 104.42 10.26C104.42 10.7 104.42 10.92 104.41 11.36C103.96 11.44 103.74 11.48 103.29 11.56C102.72 11.66 102.22 11.77 101.9 11.87C101.92 11.43 101.94 11.2 101.96 10.76H101.98Z" fill="#E8A15B"/>
<path d="M115.28 11.46C114.47 11.54 114.07 11.58 113.26 11.67C113.24 11.46 113.22 11.36 113.2 11.15C114.01 11.06 114.42 11.02 115.23 10.94C115.25 11.15 115.26 11.26 115.28 11.47V11.46ZM117.11 11.16C117.13 11.43 116.9 11.64 116.6 11.66C116.3 11.68 116.05 11.53 116.02 11.25C116 10.99 116.22 10.76 116.51 10.74C116.81 10.71 117.08 10.9 117.1 11.16H117.11ZM117.23 12.63C117.25 12.9 117.02 13.1 116.72 13.13C116.43 13.16 116.17 13 116.15 12.72C116.12 12.45 116.34 12.23 116.64 12.21C116.94 12.18 117.21 12.37 117.23 12.63Z" fill="#E8A15B"/>
<path d="M111.32 6.51999C111.22 5.71999 111.19 5.09999 111.23 4.84999C110.96 4.86999 110.25 4.91999 110.14 4.91999C110.19 4.47999 110.21 4.25999 110.25 3.81999C110.57 3.83999 111.32 3.74999 112.33 3.62999C113.41 3.50999 113.95 3.44999 115.03 3.34999C117.21 3.14999 117.67 3.66999 117.83 5.64999C117.95 7.23999 118.01 8.03999 118.14 9.62999C117.69 9.65999 117.47 9.67999 117.02 9.71999C116.9 8.26999 116.83 7.53999 116.71 6.08999C116.6 4.77999 116.41 4.31999 115 4.44999C113.9 4.54999 113.34 4.60999 112.24 4.73999C112.49 6.89999 112.61 7.97999 112.86 10.14C112.42 10.19 112.2 10.22 111.76 10.27C111.58 8.76999 111.48 8.01999 111.3 6.51999H111.32Z" fill="#E8A15B"/>
<path d="M130.23 5.27002C130.23 6.43002 130.22 7.00002 130.21 8.16002C130.21 8.23002 130.05 8.90002 129.96 9.24002C127.38 9.22002 126.09 9.24002 123.51 9.34002C123.44 7.62002 123.41 6.77002 123.34 5.05002C123.32 4.50002 123.34 4.13002 123.4 3.90002C123 3.92002 122.49 3.91002 122.32 3.87002C122.4 3.44002 122.44 3.22002 122.53 2.79002C122.92 2.83002 123.78 2.79002 124.6 2.77002C125.81 2.73002 126.42 2.72002 127.63 2.71002C129.84 2.69002 130.25 3.21002 130.23 5.26002V5.27002ZM127.58 3.81002C126.31 3.82002 125.68 3.83002 124.41 3.87002C124.46 5.61002 124.49 6.47002 124.55 8.21002C126.38 8.15002 127.29 8.14002 129.12 8.14002C129.12 7.10002 129.12 6.59002 129.12 5.55002C129.12 4.36002 128.96 3.79002 127.59 3.81002H127.58Z" fill="#E8A15B"/>
<path d="M133.82 1.78999C133.82 2.06999 133.55 2.23999 133.23 2.22999C132.91 2.22999 132.66 2.02999 132.67 1.75999C132.67 1.49999 132.94 1.29999 133.26 1.30999C133.58 1.30999 133.83 1.52999 133.82 1.78999Z" fill="#E8A15B"/>
<path d="M133.62 5.55002C133.65 4.52002 133.52 4.14002 132.36 3.88002C131.84 3.76002 131.56 3.71002 131.35 3.63002C131.46 3.21002 131.51 3.00002 131.62 2.58002C131.81 2.64002 132.11 2.71002 132.65 2.79002C134.32 3.12002 134.84 3.59002 134.77 5.41002C134.71 6.98002 134.68 7.76002 134.61 9.33002C134.16 9.31002 133.94 9.30002 133.49 9.29002C133.54 7.79002 133.56 7.04002 133.61 5.54002L133.62 5.55002Z" fill="#E8A15B"/>
<path d="M136.49 6.56999C137.13 5.82999 137.49 5.26999 137.52 4.78999C137.54 4.38999 137.27 4.24999 136.59 4.05999C136.24 3.95999 135.94 3.86999 135.69 3.77999C135.81 3.35999 135.87 3.14999 135.99 2.73999C136.2 2.80999 136.49 2.89999 136.86 2.98999C138.27 3.31999 138.74 3.70999 138.68 4.59999C138.63 5.34999 138.13 6.15999 137.36 6.98999C137.01 6.82999 136.83 6.73999 136.48 6.57999L136.49 6.56999Z" fill="#E8A15B"/>
<path d="M142.42 11.3C142.39 11.57 142.14 11.73 141.84 11.7C141.54 11.67 141.32 11.47 141.34 11.2C141.36 10.94 141.62 10.76 141.92 10.78C142.22 10.81 142.44 11.03 142.41 11.3H142.42ZM142.28 12.77C142.25 13.04 142 13.2 141.71 13.17C141.42 13.14 141.2 12.94 141.22 12.67C141.24 12.4 141.5 12.22 141.8 12.25C142.1 12.28 142.31 12.5 142.29 12.77H142.28Z" fill="#E8A15B"/>
<path d="M142.66 6.55998C142.63 6.82998 142.37 6.98998 142.06 6.95998C141.75 6.92998 141.52 6.72998 141.55 6.45998C141.57 6.18998 141.84 6.01998 142.15 6.03998C142.46 6.06998 142.69 6.28998 142.66 6.55998Z" fill="#E8A15B"/>
<path d="M139.53 8.58998C139.97 8.55998 141.01 8.63998 141.81 8.70998C142.69 8.78998 143.12 8.82998 144 8.91998C144.09 8.10998 144.21 6.96998 144.26 6.36998C144.35 5.10998 144.24 4.57998 142.83 4.44998C142.31 4.39998 142.05 4.37998 141.54 4.33998C140.68 4.26998 140.12 4.19998 139.9 4.13998C140.04 3.71998 140.11 3.50998 140.25 3.09998C140.55 3.16998 141.2 3.21998 142.16 3.29998C142.63 3.33998 142.87 3.35998 143.34 3.40998C145.48 3.61998 145.63 4.43998 145.44 6.07998C145.35 6.86998 145.31 7.25998 145.22 8.04998C145.19 8.29998 145.1 8.85998 145.05 9.05998C145.47 9.10998 145.68 9.12998 146.1 9.17998C145.95 9.59998 145.88 9.80998 145.73 10.23C143.87 10.01 142.94 9.91998 141.07 9.75998C140.46 9.70998 139.55 9.63998 139.22 9.64998C139.35 9.22998 139.41 9.01998 139.54 8.59998L139.53 8.58998Z" fill="#E8A15B"/>
<path d="M152.81 3.60002C152.77 3.87002 152.48 4.01002 152.17 3.96002C151.86 3.91002 151.63 3.69002 151.67 3.42002C151.71 3.16002 152 3.00002 152.31 3.05002C152.63 3.10002 152.85 3.34002 152.81 3.60002Z" fill="#E8A15B"/>
<path d="M152.13 7.31C152.3 6.29 152.21 5.9 151.09 5.5C150.59 5.32 150.32 5.23 150.12 5.13C150.28 4.73 150.36 4.52 150.53 4.12C150.72 4.21 151 4.31 151.53 4.46C153.15 5 153.6 5.53 153.3 7.33C153.04 8.88 152.9 9.64999 152.64 11.2C152.2 11.13 151.98 11.09 151.53 11.02C151.77 9.54 151.89 8.8 152.13 7.31Z" fill="#E8A15B"/>
<path d="M159.69 9.16998C159.63 9.43998 159.35 9.55998 159.05 9.49998C158.75 9.43998 158.54 9.20998 158.6 8.93998C158.66 8.66998 158.94 8.52998 159.25 8.59998C159.55 8.65998 159.76 8.91998 159.7 9.16998H159.69Z" fill="#E8A15B"/>
<path d="M155.82 8.01998C156.25 6.88998 155.75 6.30998 154.85 5.96998C155.03 5.54998 155.13 5.33998 155.31 4.91998C156.47 5.28998 157.06 6.01998 157.01 6.95998C157.49 6.30998 158.56 5.53998 160.2 5.88998C162.5 6.37998 162.66 8.19998 162.12 10.45C161.98 11.05 161.91 11.35 161.77 11.94C161.75 12.05 161.41 12.78 161.33 12.93C160.23 12.67 159.67 12.55 158.56 12.32C158 12.2 157.26 12.06 156.96 12.03C157.14 11.63 157.23 11.43 157.41 11.03C157.72 11.04 158.39 11.18 159.16 11.34C159.76 11.47 160.05 11.53 160.65 11.67C160.78 11.18 160.89 10.7 160.99 10.23C161.33 8.75998 161.43 7.25998 159.71 6.88998C158.09 6.54998 157.26 7.74998 156.88 8.49998C156.5 9.23998 155.92 10.61 155.44 11.69C155 11.61 154.78 11.57 154.34 11.49C154.85 10.33 155.48 8.84998 155.8 8.00998L155.82 8.01998Z" fill="#E8A15B"/>
<path d="M166.89 15.82C166.81 16.09 166.53 16.19 166.24 16.11C165.95 16.03 165.77 15.79 165.84 15.53C165.91 15.28 166.2 15.14 166.49 15.22C166.78 15.3 166.96 15.56 166.89 15.82Z" fill="#E8A15B"/>
<path d="M163.62 11.84C163.91 10.7 164.5 9.72001 165.75 9.11001C165.27 8.35001 164.68 7.58001 164.2 7.00001C164.22 6.98001 164.24 6.97001 164.26 6.95001C164.9 7.06001 165.21 7.12001 165.85 7.25001C166.44 8.04001 167.26 9.30001 168.33 11.22C168.99 11.07 169.49 10.7 169.69 9.97001C169.81 9.54001 169.81 8.97001 169.68 8.39001C170.26 8.51001 170.55 8.57001 171.13 8.70001C171.19 9.19001 171.15 9.63001 171 10.14C170.72 11.08 169.87 11.74 168.71 11.94C169.25 12.92 170.03 14.65 170.27 15.32C169.68 15.14 169.39 15.06 168.8 14.89C168.51 14.13 167.75 12.35 166.21 9.89001C165.41 10.35 165.08 11.15 164.91 11.9C164.76 12.56 164.78 13.27 164.83 13.8C164.29 13.66 164.03 13.59 163.49 13.46C163.45 12.97 163.49 12.37 163.63 11.85L163.62 11.84Z" fill="#E8A15B"/>
<path d="M178.04 9.93002C177.95 10.19 177.64 10.28 177.34 10.17C177.04 10.06 176.85 9.81002 176.94 9.55002C177.03 9.30002 177.34 9.19002 177.64 9.29002C177.94 9.39002 178.12 9.67002 178.03 9.92002L178.04 9.93002Z" fill="#E8A15B"/>
<path d="M176.72 13.46C177.06 12.49 177.04 12.08 176.01 11.49C175.55 11.22 175.29 11.09 175.11 10.95C175.34 10.58 175.46 10.4 175.69 10.03C175.86 10.15 176.13 10.3 176.62 10.54C178.13 11.35 178.49 11.96 177.87 13.68C177.34 15.16 177.07 15.9 176.54 17.37C176.11 17.22 175.9 17.14 175.48 17C175.98 15.58 176.22 14.87 176.72 13.45V13.46Z" fill="#E8A15B"/>
<path d="M181.48 15.3C181.38 15.56 181.08 15.63 180.79 15.52C180.5 15.41 180.33 15.15 180.43 14.89C180.53 14.63 180.83 14.54 181.13 14.65C181.42 14.76 181.59 15.04 181.49 15.29L181.48 15.3Z" fill="#E8A15B"/>
<path d="M179.03 17.1C181.02 17.33 182.91 16.75 183.54 15.18C183.82 14.48 183.53 14.2 182.79 13.91C181.46 13.39 180.79 13.14 179.44 12.65C179.68 12 179.8 11.68 180.04 11.03C180.29 10.34 180.55 9.49998 180.5 9.16998C180.99 9.27998 181.24 9.32998 181.73 9.43998C181.76 9.61998 181.53 10.4 181.22 11.24C181.1 11.56 181.04 11.72 180.92 12.04C182.02 12.45 182.56 12.66 183.65 13.09C185.09 13.66 185.19 14.37 184.78 15.36C183.75 17.86 180.65 18.58 178.36 18.18C178.63 17.76 178.76 17.55 179.04 17.12L179.03 17.1Z" fill="#E8A15B"/>
<path d="M193.89 20.87C194.49 19.68 194.59 19.13 193.31 18.51C192.38 18.06 191.92 17.84 190.99 17.41C190.18 17.03 189.61 16.75 189.44 16.62C189.71 16.27 189.85 16.1 190.12 15.75C190.38 15.92 191.07 16.23 192.01 16.67C192.77 17.02 193.14 17.21 193.89 17.57C195.84 18.52 196.04 19.19 195.14 20.95C194.4 22.4 194.02 23.12 193.28 24.57C192.88 24.37 192.68 24.26 192.28 24.06C192.92 22.78 193.24 22.14 193.89 20.86V20.87ZM188.86 18.64C189.28 18.83 189.49 18.93 189.92 19.12C189.34 20.37 189.05 20.99 188.47 22.23C188.06 22.04 187.85 21.95 187.44 21.76C188.01 20.51 188.3 19.89 188.87 18.64H188.86Z" fill="#E8A15B"/>
<path d="M199.21 29.59C198.79 29.35 198.59 29.23 198.17 28.99C198 29.4 197.91 29.6 197.73 30.01C197.46 29.86 197.32 29.78 197.05 29.63C197.31 29.27 197.44 29.09 197.71 28.73C197.28 28.49 197.07 28.37 196.64 28.13C196.74 27.95 196.79 27.85 196.9 27.67C197.94 28.24 198.45 28.54 199.48 29.14C199.37 29.32 199.32 29.41 199.21 29.6V29.59Z" fill="#E8A15B"/>
<path d="M200.11 24.01C200.69 22.97 200.81 22.43 199.56 21.74C199.03 21.45 198.77 21.31 198.24 21.02C197.45 20.6 196.95 20.31 196.78 20.17C197.07 19.84 197.21 19.67 197.51 19.34C197.76 19.52 198.45 19.89 199.37 20.38C199.7 20.56 199.87 20.65 200.2 20.83C202.16 21.91 202.32 22.5 201.29 24.28C200.48 25.69 200.08 26.39 199.26 27.8C198.87 27.58 198.67 27.46 198.28 27.24C199.01 25.94 199.38 25.3 200.11 24V24.01Z" fill="#E8A15B"/>
<path d="M203.85 32.25C203.7 32.48 203.4 32.5 203.14 32.34C202.88 32.18 202.77 31.89 202.91 31.66C203.05 31.44 203.37 31.39 203.63 31.56C203.89 31.72 203.99 32.03 203.85 32.25ZM203.05 33.5C202.9 33.73 202.6 33.75 202.34 33.59C202.08 33.43 201.97 33.15 202.12 32.91C202.27 32.68 202.58 32.64 202.83 32.81C203.09 32.97 203.19 33.28 203.04 33.5H203.05Z" fill="#E8A15B"/>
<path d="M206.34 28.02C206.19 28.25 205.88 28.27 205.61 28.1C205.34 27.93 205.22 27.64 205.37 27.41C205.52 27.18 205.84 27.15 206.11 27.32C206.38 27.49 206.49 27.8 206.35 28.02H206.34Z" fill="#E8A15B"/>
<path d="M203.81 22.96C204.33 23.22 204.59 23.34 205.11 23.61C204.7 25.04 204.03 26.92 203.23 28.93C203.45 29.05 203.8 29.22 204.36 29.47C205.88 30.15 207.2 29.88 207.94 28.74C208.57 27.77 208.29 26.81 207.32 26.19C206.85 25.89 206.41 25.73 206.03 25.63C206.35 25.3 206.52 25.14 206.84 24.82C207.32 24.95 207.7 25.13 208.14 25.41C209.8 26.46 209.89 27.96 209.04 29.23C207.63 31.33 205.34 30.99 203.82 30.37C203.03 30.05 202.26 29.65 201.84 29.43C202.57 27.37 203.42 24.93 203.81 22.96Z" fill="#E8A15B"/>
<path d="M210.59 36.83C210.43 37.05 210.12 37.05 209.87 36.87C209.62 36.69 209.52 36.4 209.68 36.17C209.83 35.95 210.16 35.93 210.41 36.11C210.66 36.29 210.75 36.6 210.59 36.82V36.83Z" fill="#E8A15B"/>
<path d="M210.7 33.81C211.05 32.46 211.35 29.25 211.13 27.58C211.7 27.91 211.98 28.08 212.55 28.41C212.59 29.85 212.26 32.59 211.74 34.21C212.86 34.55 213.79 34.28 214.67 33.08C215.07 32.53 215.49 31.58 215.61 30.7C216.14 31.02 216.4 31.19 216.92 31.52C216.83 31.96 216.48 32.8 215.88 33.59C214.83 34.98 213.55 35.75 211.06 35.04C209.9 34.71 208.29 33.96 207.09 33.31C207.43 32.97 207.61 32.81 207.95 32.47C208.82 32.96 209.95 33.53 210.71 33.8L210.7 33.81Z" fill="#E8A15B"/>
<path d="M215.67 40.23C215.14 40.9 214.87 41.24 214.34 41.91C214.18 41.79 214.11 41.72 213.95 41.6C214.48 40.93 214.74 40.59 215.27 39.92C215.43 40.04 215.51 40.11 215.67 40.23Z" fill="#E8A15B"/>
<path d="M216.9 41.68C216.73 41.89 216.41 41.87 216.17 41.68C215.93 41.48 215.84 41.19 216.02 40.97C216.18 40.76 216.51 40.76 216.75 40.96C216.99 41.16 217.07 41.48 216.9 41.69V41.68ZM216.78 43.3C216.6 43.51 216.29 43.5 216.05 43.3C215.81 43.1 215.74 42.8 215.91 42.58C216.08 42.37 216.39 42.38 216.63 42.58C216.87 42.78 216.94 43.09 216.77 43.29L216.78 43.3ZM218.34 42.88C218.16 43.09 217.86 43.07 217.62 42.87C217.38 42.67 217.29 42.36 217.46 42.15C217.63 41.95 217.96 41.96 218.2 42.15C218.44 42.34 218.5 42.67 218.33 42.87L218.34 42.88Z" fill="#E8A15B"/>
<path d="M225.31 37.04C225.13 37.25 224.81 37.21 224.56 37C224.31 36.78 224.22 36.47 224.4 36.26C224.57 36.06 224.91 36.08 225.16 36.29C225.41 36.51 225.49 36.84 225.32 37.04H225.31Z" fill="#E8A15B"/>
<path d="M218.29 32.7C218.79 33.03 219.04 33.19 219.53 33.52C219.44 33.82 219.05 34.65 218.04 36.7C219.41 37.43 219.91 37.23 220.46 36.56C220.76 36.19 221.05 35.54 221.2 34.98C221.69 35.32 221.93 35.49 222.41 35.83C222.28 36.24 221.98 36.86 221.62 37.31C220.92 38.18 219.92 38.68 217.67 37.39C217.62 37.5 217.22 38.28 217.05 38.64C217.32 38.83 217.79 39.16 218.45 39.52C220.11 40.45 221.39 40.72 222.71 39.16C223.22 38.56 223.61 37.71 223.76 37.09C224.25 37.45 224.49 37.63 224.97 38C224.82 38.44 224.45 39.18 223.88 39.85C221.97 42.08 219.67 41.41 217.64 40.21C216.82 39.72 216.04 39.22 215.62 38.93C216.35 37.49 218.08 33.77 218.32 32.71L218.29 32.7Z" fill="#E8A15B"/>
<path d="M231.38 48.11C232.32 47.17 232.59 46.68 231.54 45.63C230.77 44.87 230.39 44.5 229.61 43.75C228.94 43.11 228.47 42.64 228.34 42.45C228.71 42.21 228.89 42.09 229.26 41.85C229.46 42.1 230.04 42.64 230.82 43.4C231.45 44.01 231.76 44.31 232.38 44.93C233.99 46.53 233.98 47.26 232.58 48.63C231.42 49.77 230.83 50.34 229.67 51.47C229.34 51.13 229.18 50.96 228.85 50.63C229.86 49.62 230.37 49.12 231.39 48.11H231.38ZM227.15 44.19C227.5 44.52 227.68 44.69 228.03 45.02C227.09 46.02 226.62 46.52 225.67 47.52C225.33 47.19 225.15 47.03 224.81 46.71C225.74 45.7 226.21 45.2 227.15 44.19Z" fill="#E8A15B"/>
<path d="M233.93 58.45C233.6 58.06 233.43 57.87 233.09 57.49C232.8 57.82 232.65 57.99 232.35 58.33C232.13 58.08 232.02 57.96 231.81 57.71C232.18 57.46 232.36 57.33 232.72 57.08C232.37 56.69 232.2 56.5 231.85 56.11C232.01 55.97 232.08 55.9 232.24 55.75C233.08 56.68 233.49 57.15 234.31 58.1C234.15 58.24 234.07 58.31 233.91 58.45H233.93Z" fill="#E8A15B"/>
<path d="M236.49 53.36C237.37 52.57 237.65 52.07 236.64 50.96C236.21 50.49 236 50.26 235.57 49.79C234.93 49.1 234.53 48.65 234.41 48.45C234.79 48.23 234.98 48.12 235.37 47.91C235.56 48.18 236.12 48.77 236.86 49.58C237.13 49.87 237.27 50.02 237.53 50.32C239.12 52.07 239.09 52.7 237.55 54.06C236.33 55.13 235.73 55.67 234.51 56.74C234.2 56.38 234.04 56.2 233.72 55.85C234.83 54.86 235.38 54.36 236.49 53.36Z" fill="#E8A15B"/>
<path d="M238.14 63.58C237.82 63.17 237.66 62.97 237.34 62.57C237.03 62.89 236.88 63.05 236.57 63.37C236.36 63.11 236.26 62.98 236.05 62.72C236.43 62.48 236.62 62.37 236.99 62.13C236.66 61.72 236.49 61.52 236.16 61.11C236.32 60.98 236.4 60.91 236.57 60.77C237.37 61.75 237.77 62.24 238.55 63.25C238.38 63.38 238.3 63.45 238.14 63.58Z" fill="#E8A15B"/>
<path d="M240.42 53.67C240.85 54.11 241.06 54.33 241.49 54.77C240.65 56.01 239.44 57.6 238.05 59.27C238.23 59.47 238.52 59.76 238.99 60.21C240.27 61.43 241.63 61.66 242.71 60.81C243.62 60.1 243.64 59.06 242.87 58.09C242.5 57.62 242.12 57.31 241.77 57.08C242.18 56.88 242.39 56.78 242.81 56.59C243.24 56.89 243.56 57.21 243.9 57.64C245.2 59.27 244.84 60.77 243.62 61.7C241.61 63.23 239.47 62.05 238.18 60.89C237.51 60.29 236.88 59.62 236.53 59.26C237.86 57.52 239.43 55.46 240.41 53.69L240.42 53.67Z" fill="#E8A15B"/>
<path d="M242.51 69.46C241.99 68.72 241.73 68.36 241.2 67.63C241.37 67.51 241.46 67.44 241.63 67.32C242.16 68.05 242.42 68.42 242.94 69.16C242.77 69.28 242.68 69.34 242.51 69.47V69.46ZM243.79 71.08C243.56 71.24 243.25 71.1 243.07 70.83C242.88 70.56 242.88 70.23 243.1 70.08C243.32 69.93 243.64 70.03 243.83 70.31C244.02 70.58 244.01 70.94 243.79 71.09V71.08ZM242.57 71.91C242.34 72.07 242.04 71.94 241.85 71.67C241.66 71.4 241.66 71.08 241.89 70.92C242.12 70.76 242.43 70.87 242.61 71.14C242.8 71.41 242.79 71.76 242.57 71.91Z" fill="#E8A15B"/>
<path d="M243.87 66.79C244.62 65.59 245.88 62.57 246.17 60.85C246.63 61.38 246.85 61.65 247.3 62.19C246.91 63.62 245.75 66.17 244.76 67.57C245.75 68.33 246.75 68.41 247.96 67.57C248.52 67.18 249.21 66.4 249.59 65.59C250.01 66.11 250.21 66.37 250.63 66.89C250.41 67.29 249.81 67.98 248.99 68.53C247.54 69.5 246.06 69.76 243.84 68.13C242.81 67.38 241.46 66.03 240.48 64.96C240.92 64.76 241.14 64.66 241.58 64.46C242.29 65.26 243.21 66.24 243.87 66.79Z" fill="#E8A15B"/>
<path d="M245.72 73.33C245.01 73.8 244.65 74.03 243.93 74.5C243.81 74.32 243.75 74.23 243.64 74.05C244.35 73.58 244.71 73.34 245.42 72.87C245.54 73.05 245.6 73.14 245.72 73.33Z" fill="#E8A15B"/>
<path d="M247.08 76.38C246.54 75.51 246.26 75.08 245.71 74.22C245.89 74.11 245.98 74.05 246.15 73.93C246.71 74.79 246.98 75.23 247.52 76.1C247.34 76.21 247.25 76.27 247.07 76.38H247.08Z" fill="#E8A15B"/>
<path d="M250.72 73C250.49 73.15 250.19 73 250 72.71C249.81 72.42 249.81 72.08 250.05 71.93C250.29 71.78 250.6 71.91 250.78 72.21C250.97 72.5 250.95 72.85 250.72 72.99V73Z" fill="#E8A15B"/>
<path d="M247.01 71.46C247.33 71.83 247.97 72.81 248.46 73.58C248.99 74.42 249.26 74.84 249.78 75.69C250.47 75.26 251.46 74.67 251.96 74.33C253.01 73.63 253.35 73.19 252.5 71.84C252.19 71.34 252.03 71.1 251.72 70.61C251.19 69.79 250.86 69.25 250.77 69.01C251.19 68.87 251.4 68.81 251.83 68.67C251.98 68.98 252.38 69.6 252.96 70.51C253.25 70.96 253.39 71.19 253.67 71.64C254.96 73.7 254.41 74.35 253 75.2C252.32 75.61 251.98 75.81 251.3 76.22C251.08 76.35 250.58 76.61 250.39 76.69C250.64 77.1 250.76 77.31 251.01 77.72C250.58 77.85 250.36 77.91 249.93 78.04C248.84 76.21 248.28 75.31 247.15 73.54C246.77 72.96 246.22 72.11 245.98 71.82C246.4 71.67 246.6 71.6 247.02 71.46H247.01Z" fill="#E8A15B"/>
</svg>
